<svg xmlns="http://www.w3.org/2000/svg" xmlns:xlink="http://www.w3.org/1999/xlink" width="0" height="0" style="position:absolute">

	<symbol id="home-icon" viewBox="0 0 460.298 460.297">
		<path fill="currentColor" d="M230.149,120.939L65.986,256.274c0,0.191-0.048,0.472-0.144,0.855c-0.094,0.38-0.144,0.656-0.144,0.852v137.041    c0,4.948,1.809,9.236,5.426,12.847c3.616,3.613,7.898,5.431,12.847,5.431h109.63V303.664h73.097v109.64h109.629    c4.948,0,9.236-1.814,12.847-5.435c3.617-3.607,5.432-7.898,5.432-12.847V257.981c0-0.76-0.104-1.334-0.288-1.707L230.149,120.939    z"/>
		<path fill="currentColor" d="M457.122,225.438L394.6,173.476V56.989c0-2.663-0.856-4.853-2.574-6.567c-1.704-1.712-3.894-2.568-6.563-2.568h-54.816    c-2.666,0-4.855,0.856-6.57,2.568c-1.711,1.714-2.566,3.905-2.566,6.567v55.673l-69.662-58.245    c-6.084-4.949-13.318-7.423-21.694-7.423c-8.375,0-15.608,2.474-21.698,7.423L3.172,225.438c-1.903,1.52-2.946,3.566-3.14,6.136    c-0.193,2.568,0.472,4.811,1.997,6.713l17.701,21.128c1.525,1.712,3.521,2.759,5.996,3.142c2.285,0.192,4.57-0.476,6.855-1.998    L230.149,95.817l197.57,164.741c1.526,1.328,3.521,1.991,5.996,1.991h0.858c2.471-0.376,4.463-1.43,5.996-3.138l17.703-21.125    c1.522-1.906,2.189-4.145,1.991-6.716C460.068,229.007,459.021,226.961,457.122,225.438z"/>
	</symbol>

	<symbol id="mobile-icon" viewBox="0 0 27.442 27.442">
		<path fill="currentColor" d="M19.494,0H7.948C6.843,0,5.951,0.896,5.951,1.999v23.446c0,1.102,0.892,1.997,1.997,1.997h11.546   c1.103,0,1.997-0.895,1.997-1.997V1.999C21.491,0.896,20.597,0,19.494,0z M10.872,1.214h5.7c0.144,0,0.261,0.215,0.261,0.481   s-0.117,0.482-0.261,0.482h-5.7c-0.145,0-0.26-0.216-0.26-0.482C10.612,1.429,10.727,1.214,10.872,1.214z M13.722,25.469   c-0.703,0-1.275-0.572-1.275-1.276s0.572-1.274,1.275-1.274c0.701,0,1.273,0.57,1.273,1.274S14.423,25.469,13.722,25.469z    M19.995,21.1H7.448V3.373h12.547V21.1z"/>
	</symbol>

	<symbol id="pokebola-icon" viewBox="0 0 1024 1024">
		<path fill="currentColor" d="m512 96.8c-207.72 0.14-379.83 152.53-410.76 351.61 0 0 211.27 0.39 211.27 0.39 26.99-84.43 106.09-145.55 199.49-145.6 93.25 0.11 172.24 61.13 199.33 145.41l211.2 0.19c-30.71-199.2-202.78-351.74-410.53-352zm0 280c-75.11 0-136 60.89-136 136s60.89 136 136 136 136-60.89 136-136-60.89-136-136-136zm-410.53 200c30.71 199.2 202.78 351.74 410.53 352 207.72-0.14 379.83-152.53 410.76-351.61 0 0-211.27-0.39-211.27-0.39-26.99 84.43-106.09 145.55-199.49 145.6-93.25-0.11-172.24-61.13-199.33-145.41l-211.2-0.19z"/>
	</symbol>

	<symbol id="tv-icon" viewBox="0 0 453.001 453.001">
		<path fill="currentColor" d="M420.135,110.203H280.091l49.728-81.594c4.312-7.074,2.072-16.304-5.002-20.615c-7.073-4.313-16.304-2.072-20.615,5.002    l-59.243,97.207h-36.916L148.8,12.996c-4.311-7.072-13.541-9.312-20.615-5.002c-7.074,4.312-9.314,13.541-5.002,20.615    l49.728,81.594H32.865C14.743,110.203,0,124.946,0,143.067v271.271c0,18.121,14.743,32.864,32.865,32.864h387.271    c18.122,0,32.865-14.743,32.865-32.864V143.067C453,124.946,438.257,110.203,420.135,110.203z M317.677,374.912    c0,9.866-7.998,17.865-17.865,17.865H71.188c-9.866-0.001-17.864-7.999-17.864-17.865V182.494c0-9.866,7.998-17.865,17.865-17.865    h228.623c9.866,0,17.865,7.999,17.865,17.865V374.912z M383.792,369.203c-17.093,0-31-13.907-31-31c0-17.094,13.907-31,31-31    c17.093,0,31,13.906,31,31S400.885,369.203,383.792,369.203z M383.792,250.203c-17.093,0-31-13.906-31-31s13.907-31,31-31    c17.093,0,31,13.906,31,31S400.885,250.203,383.792,250.203z"/>
	</symbol>

	<symbol id="search-icon" viewBox="0 0 30.239 30.239">
		<path fill="currentColor" d="M20.194,3.46c-4.613-4.613-12.121-4.613-16.734,0c-4.612,4.614-4.612,12.121,0,16.735   c4.108,4.107,10.506,4.547,15.116,1.34c0.097,0.459,0.319,0.897,0.676,1.254l6.718,6.718c0.979,0.977,2.561,0.977,3.535,0   c0.978-0.978,0.978-2.56,0-3.535l-6.718-6.72c-0.355-0.354-0.794-0.577-1.253-0.674C24.743,13.967,24.303,7.57,20.194,3.46z    M18.073,18.074c-3.444,3.444-9.049,3.444-12.492,0c-3.442-3.444-3.442-9.048,0-12.492c3.443-3.443,9.048-3.443,12.492,0   C21.517,9.026,21.517,14.63,18.073,18.074z"/>
	</symbol>

</svg>